<mxfile host="Electron" modified="2023-12-20T10:38:55.931Z" agent="Mozilla/5.0 (Macintosh; Intel Mac OS X 10_15_7) AppleWebKit/537.36 (KHTML, like Gecko) draw.io/22.1.11 Chrome/114.0.5735.289 Electron/25.9.8 Safari/537.36" etag="WThOoZ6ec6zsEPg8JIL6" version="22.1.11" type="device">
  <diagram name="Side-1" id="XlH4slpYokZlbumTL10U">
    <mxGraphModel dx="1194" dy="742" grid="1" gridSize="10" guides="1" tooltips="1" connect="1" arrows="1" fold="1" page="1" pageScale="1" pageWidth="827" pageHeight="1169" math="0" shadow="0">
      <root>
        <mxCell id="0" />
        <mxCell id="1" parent="0" />
        <mxCell id="Uv9KESUbztXOKnm7FFDa-3" value="" style="edgeStyle=orthogonalEdgeStyle;rounded=0;orthogonalLoop=1;jettySize=auto;html=1;" parent="1" source="Uv9KESUbztXOKnm7FFDa-1" target="Uv9KESUbztXOKnm7FFDa-2" edge="1">
          <mxGeometry relative="1" as="geometry" />
        </mxCell>
        <mxCell id="Uv9KESUbztXOKnm7FFDa-1" value="" style="strokeWidth=2;html=1;shape=mxgraph.flowchart.start_2;whiteSpace=wrap;" parent="1" vertex="1">
          <mxGeometry x="400" y="20" width="40" height="40" as="geometry" />
        </mxCell>
        <mxCell id="Uv9KESUbztXOKnm7FFDa-5" value="" style="edgeStyle=orthogonalEdgeStyle;rounded=0;orthogonalLoop=1;jettySize=auto;html=1;" parent="1" source="Uv9KESUbztXOKnm7FFDa-2" target="Uv9KESUbztXOKnm7FFDa-4" edge="1">
          <mxGeometry relative="1" as="geometry" />
        </mxCell>
        <mxCell id="Uv9KESUbztXOKnm7FFDa-2" value="Push to Main" style="strokeWidth=2;html=1;shape=mxgraph.flowchart.terminator;whiteSpace=wrap;" parent="1" vertex="1">
          <mxGeometry x="355" y="90" width="130" height="60" as="geometry" />
        </mxCell>
        <mxCell id="Uv9KESUbztXOKnm7FFDa-10" value="" style="edgeStyle=orthogonalEdgeStyle;rounded=0;orthogonalLoop=1;jettySize=auto;html=1;" parent="1" source="Uv9KESUbztXOKnm7FFDa-4" target="Uv9KESUbztXOKnm7FFDa-6" edge="1">
          <mxGeometry relative="1" as="geometry" />
        </mxCell>
        <mxCell id="Uv9KESUbztXOKnm7FFDa-4" value="Setup .NET" style="strokeWidth=2;html=1;shape=mxgraph.flowchart.terminator;whiteSpace=wrap;" parent="1" vertex="1">
          <mxGeometry x="370" y="180" width="100" height="60" as="geometry" />
        </mxCell>
        <mxCell id="Uv9KESUbztXOKnm7FFDa-12" value="" style="edgeStyle=orthogonalEdgeStyle;rounded=0;orthogonalLoop=1;jettySize=auto;html=1;" parent="1" source="Uv9KESUbztXOKnm7FFDa-6" target="Uv9KESUbztXOKnm7FFDa-7" edge="1">
          <mxGeometry relative="1" as="geometry" />
        </mxCell>
        <mxCell id="Uv9KESUbztXOKnm7FFDa-6" value="Build" style="strokeWidth=2;html=1;shape=mxgraph.flowchart.terminator;whiteSpace=wrap;" parent="1" vertex="1">
          <mxGeometry x="370" y="280" width="100" height="60" as="geometry" />
        </mxCell>
        <mxCell id="Uv9KESUbztXOKnm7FFDa-13" value="" style="edgeStyle=orthogonalEdgeStyle;rounded=0;orthogonalLoop=1;jettySize=auto;html=1;" parent="1" source="Uv9KESUbztXOKnm7FFDa-7" target="Uv9KESUbztXOKnm7FFDa-11" edge="1">
          <mxGeometry relative="1" as="geometry" />
        </mxCell>
        <mxCell id="Uv9KESUbztXOKnm7FFDa-7" value="Publish and upload&amp;nbsp;" style="strokeWidth=2;html=1;shape=mxgraph.flowchart.terminator;whiteSpace=wrap;" parent="1" vertex="1">
          <mxGeometry x="355" y="370" width="130" height="60" as="geometry" />
        </mxCell>
        <mxCell id="Uv9KESUbztXOKnm7FFDa-8" value="" style="strokeWidth=2;html=1;shape=mxgraph.flowchart.start_2;whiteSpace=wrap;fillColor=#f9f7ed;strokeColor=#000000;" parent="1" vertex="1">
          <mxGeometry x="400" y="1100" width="40" height="40" as="geometry" />
        </mxCell>
        <mxCell id="Uv9KESUbztXOKnm7FFDa-9" value="" style="strokeWidth=2;html=1;shape=mxgraph.flowchart.start_2;whiteSpace=wrap;" parent="1" vertex="1">
          <mxGeometry x="405" y="1105" width="30" height="30" as="geometry" />
        </mxCell>
        <mxCell id="Uv9KESUbztXOKnm7FFDa-15" value="" style="edgeStyle=orthogonalEdgeStyle;rounded=0;orthogonalLoop=1;jettySize=auto;html=1;" parent="1" source="Uv9KESUbztXOKnm7FFDa-11" target="Uv9KESUbztXOKnm7FFDa-14" edge="1">
          <mxGeometry relative="1" as="geometry" />
        </mxCell>
        <mxCell id="Uv9KESUbztXOKnm7FFDa-27" value="" style="edgeStyle=orthogonalEdgeStyle;rounded=0;orthogonalLoop=1;jettySize=auto;html=1;" parent="1" source="Uv9KESUbztXOKnm7FFDa-11" target="Uv9KESUbztXOKnm7FFDa-26" edge="1">
          <mxGeometry relative="1" as="geometry" />
        </mxCell>
        <mxCell id="Uv9KESUbztXOKnm7FFDa-11" value="Succesfull" style="strokeWidth=2;html=1;shape=mxgraph.flowchart.decision;whiteSpace=wrap;" parent="1" vertex="1">
          <mxGeometry x="370" y="470" width="100" height="70" as="geometry" />
        </mxCell>
        <mxCell id="Uv9KESUbztXOKnm7FFDa-19" value="" style="edgeStyle=orthogonalEdgeStyle;rounded=0;orthogonalLoop=1;jettySize=auto;html=1;" parent="1" source="Uv9KESUbztXOKnm7FFDa-14" target="Uv9KESUbztXOKnm7FFDa-18" edge="1">
          <mxGeometry relative="1" as="geometry" />
        </mxCell>
        <mxCell id="Uv9KESUbztXOKnm7FFDa-14" value="Deploy" style="strokeWidth=2;html=1;shape=mxgraph.flowchart.terminator;whiteSpace=wrap;" parent="1" vertex="1">
          <mxGeometry x="355" y="600" width="130" height="60" as="geometry" />
        </mxCell>
        <mxCell id="Uv9KESUbztXOKnm7FFDa-16" value="Yes" style="text;html=1;strokeColor=none;fillColor=none;align=center;verticalAlign=middle;whiteSpace=wrap;rounded=0;" parent="1" vertex="1">
          <mxGeometry x="414" y="960" width="60" height="30" as="geometry" />
        </mxCell>
        <mxCell id="Uv9KESUbztXOKnm7FFDa-21" value="" style="edgeStyle=orthogonalEdgeStyle;rounded=0;orthogonalLoop=1;jettySize=auto;html=1;" parent="1" source="Uv9KESUbztXOKnm7FFDa-18" target="Uv9KESUbztXOKnm7FFDa-20" edge="1">
          <mxGeometry relative="1" as="geometry" />
        </mxCell>
        <mxCell id="Uv9KESUbztXOKnm7FFDa-18" value="Download Artifact" style="strokeWidth=2;html=1;shape=mxgraph.flowchart.terminator;whiteSpace=wrap;" parent="1" vertex="1">
          <mxGeometry x="355" y="700" width="130" height="60" as="geometry" />
        </mxCell>
        <mxCell id="Uv9KESUbztXOKnm7FFDa-23" value="" style="edgeStyle=orthogonalEdgeStyle;rounded=0;orthogonalLoop=1;jettySize=auto;html=1;" parent="1" source="Uv9KESUbztXOKnm7FFDa-20" target="Uv9KESUbztXOKnm7FFDa-22" edge="1">
          <mxGeometry relative="1" as="geometry" />
        </mxCell>
        <mxCell id="Uv9KESUbztXOKnm7FFDa-20" value="Deploy to Azure Webapp" style="strokeWidth=2;html=1;shape=mxgraph.flowchart.terminator;whiteSpace=wrap;" parent="1" vertex="1">
          <mxGeometry x="355" y="790" width="130" height="60" as="geometry" />
        </mxCell>
        <mxCell id="Uv9KESUbztXOKnm7FFDa-25" value="" style="edgeStyle=orthogonalEdgeStyle;rounded=0;orthogonalLoop=1;jettySize=auto;html=1;" parent="1" source="Uv9KESUbztXOKnm7FFDa-22" target="Uv9KESUbztXOKnm7FFDa-24" edge="1">
          <mxGeometry relative="1" as="geometry" />
        </mxCell>
        <mxCell id="Uv9KESUbztXOKnm7FFDa-22" value="Succesfull" style="strokeWidth=2;html=1;shape=mxgraph.flowchart.decision;whiteSpace=wrap;" parent="1" vertex="1">
          <mxGeometry x="370" y="890" width="100" height="70" as="geometry" />
        </mxCell>
        <mxCell id="Uv9KESUbztXOKnm7FFDa-30" value="" style="edgeStyle=orthogonalEdgeStyle;rounded=0;orthogonalLoop=1;jettySize=auto;html=1;" parent="1" source="Uv9KESUbztXOKnm7FFDa-24" edge="1">
          <mxGeometry relative="1" as="geometry">
            <mxPoint x="420" y="1100" as="targetPoint" />
          </mxGeometry>
        </mxCell>
        <mxCell id="Uv9KESUbztXOKnm7FFDa-24" value="Workflow Successfull" style="strokeWidth=2;html=1;shape=mxgraph.flowchart.terminator;whiteSpace=wrap;" parent="1" vertex="1">
          <mxGeometry x="355" y="1000" width="130" height="60" as="geometry" />
        </mxCell>
        <mxCell id="Uv9KESUbztXOKnm7FFDa-26" value="Workflow Failed" style="strokeWidth=2;html=1;shape=mxgraph.flowchart.terminator;whiteSpace=wrap;" parent="1" vertex="1">
          <mxGeometry x="580" y="895" width="130" height="60" as="geometry" />
        </mxCell>
        <mxCell id="Uv9KESUbztXOKnm7FFDa-28" style="edgeStyle=orthogonalEdgeStyle;rounded=0;orthogonalLoop=1;jettySize=auto;html=1;entryX=0;entryY=0.5;entryDx=0;entryDy=0;entryPerimeter=0;" parent="1" source="Uv9KESUbztXOKnm7FFDa-22" target="Uv9KESUbztXOKnm7FFDa-26" edge="1">
          <mxGeometry relative="1" as="geometry" />
        </mxCell>
        <mxCell id="Uv9KESUbztXOKnm7FFDa-29" value="Yes" style="text;html=1;strokeColor=none;fillColor=none;align=center;verticalAlign=middle;whiteSpace=wrap;rounded=0;" parent="1" vertex="1">
          <mxGeometry x="410" y="540" width="60" height="30" as="geometry" />
        </mxCell>
        <mxCell id="Uv9KESUbztXOKnm7FFDa-31" style="edgeStyle=orthogonalEdgeStyle;rounded=0;orthogonalLoop=1;jettySize=auto;html=1;entryX=1;entryY=0.5;entryDx=0;entryDy=0;entryPerimeter=0;exitX=0.5;exitY=1;exitDx=0;exitDy=0;exitPerimeter=0;" parent="1" source="Uv9KESUbztXOKnm7FFDa-26" target="Uv9KESUbztXOKnm7FFDa-8" edge="1">
          <mxGeometry relative="1" as="geometry" />
        </mxCell>
        <mxCell id="Uv9KESUbztXOKnm7FFDa-32" value="No" style="text;html=1;strokeColor=none;fillColor=none;align=center;verticalAlign=middle;whiteSpace=wrap;rounded=0;" parent="1" vertex="1">
          <mxGeometry x="450" y="470" width="60" height="30" as="geometry" />
        </mxCell>
        <mxCell id="Uv9KESUbztXOKnm7FFDa-33" value="No" style="text;html=1;strokeColor=none;fillColor=none;align=center;verticalAlign=middle;whiteSpace=wrap;rounded=0;" parent="1" vertex="1">
          <mxGeometry x="460" y="895" width="60" height="30" as="geometry" />
        </mxCell>
        <mxCell id="_4ciUgmiyHFngCyUdaKW-1" value="" style="rounded=0;whiteSpace=wrap;html=1;fillColor=none;" vertex="1" parent="1">
          <mxGeometry x="40" y="70" width="190" height="390" as="geometry" />
        </mxCell>
        <mxCell id="_4ciUgmiyHFngCyUdaKW-2" value="Condition" style="strokeWidth=2;html=1;shape=mxgraph.flowchart.decision;whiteSpace=wrap;" vertex="1" parent="1">
          <mxGeometry x="75.94" y="190" width="118.12" height="74" as="geometry" />
        </mxCell>
        <mxCell id="_4ciUgmiyHFngCyUdaKW-3" value="" style="strokeWidth=2;html=1;shape=mxgraph.flowchart.start_2;whiteSpace=wrap;" vertex="1" parent="1">
          <mxGeometry x="75" y="320" width="30" height="30" as="geometry" />
        </mxCell>
        <mxCell id="_4ciUgmiyHFngCyUdaKW-4" value="Initial state" style="text;html=1;strokeColor=none;fillColor=none;align=center;verticalAlign=middle;whiteSpace=wrap;rounded=0;" vertex="1" parent="1">
          <mxGeometry x="125" y="320" width="60" height="30" as="geometry" />
        </mxCell>
        <mxCell id="_4ciUgmiyHFngCyUdaKW-5" value="Final state" style="text;html=1;strokeColor=none;fillColor=none;align=center;verticalAlign=middle;whiteSpace=wrap;rounded=0;" vertex="1" parent="1">
          <mxGeometry x="125" y="385" width="60" height="30" as="geometry" />
        </mxCell>
        <mxCell id="_4ciUgmiyHFngCyUdaKW-6" value="Activity" style="strokeWidth=2;html=1;shape=mxgraph.flowchart.terminator;whiteSpace=wrap;" vertex="1" parent="1">
          <mxGeometry x="85" y="100" width="100" height="60" as="geometry" />
        </mxCell>
        <mxCell id="_4ciUgmiyHFngCyUdaKW-7" value="" style="strokeWidth=2;html=1;shape=mxgraph.flowchart.start_2;whiteSpace=wrap;fillColor=#f9f7ed;strokeColor=#000000;" vertex="1" parent="1">
          <mxGeometry x="70" y="380" width="40" height="40" as="geometry" />
        </mxCell>
        <mxCell id="_4ciUgmiyHFngCyUdaKW-8" value="" style="strokeWidth=2;html=1;shape=mxgraph.flowchart.start_2;whiteSpace=wrap;" vertex="1" parent="1">
          <mxGeometry x="75" y="385" width="29" height="30" as="geometry" />
        </mxCell>
      </root>
    </mxGraphModel>
  </diagram>
</mxfile>
